<?xml version="1.0" encoding="utf-8"?>
<!-- Generator: Adobe Illustrator 20.0.0, SVG Export Plug-In . SVG Version: 6.00 Build 0)  -->
<svg version="1.1" id="Calque_1" xmlns="http://www.w3.org/2000/svg" xmlns:xlink="http://www.w3.org/1999/xlink" x="0px" y="0px"
	 viewBox="0 0 190 28.889" style="enable-background:new 0 0 190 28.889;" xml:space="preserve">
<style type="text/css">
	.st0{fill:#FFFFFF;}
</style>
<g>
	<g>
		<g>
			<path class="st0" d="M178.236,12.503c0.13-1.299,0.291-3.136,0.291-5.01c0-3.19-0.471-6.269-0.471-6.771h-1.557
				c0,0.503-0.471,3.581-0.471,6.771c0,3.191,0.471,6.292,0.471,6.798H190v-1.787H178.236z"/>
			<path class="st0" d="M146.818,12.503c0.116-1.135,0.258-2.671,0.296-4.281h8.761V6.438h-8.77
				c-0.047-1.485-0.171-2.882-0.287-3.941h12.306V0.722h-14.04c0,0.503-0.473,3.581-0.473,6.771c0,3.191,0.473,6.292,0.473,6.798
				h14.379v-1.787H146.818z"/>
			<path class="st0" d="M129.411,0.721h-15.872v1.776h6.984c-0.144,1.303-0.301,3.124-0.301,4.997c0,3.191,0.471,6.29,0.471,6.797
				h1.567c0-0.506,0.471-3.605,0.471-6.797c0-1.872-0.163-3.694-0.294-4.997h6.974V0.721z"/>
			<path class="st0" d="M97.238,14.29c0-0.506,0.467-3.605,0.467-6.797s-0.467-6.269-0.467-6.773h-1.561
				c0,0.504-0.485,3.581-0.485,6.773s0.485,6.29,0.485,6.797H97.238z"/>
			<path class="st0" d="M79.274,2.498V0.722H65.773c0,0.503-0.47,3.58-0.47,6.771s0.47,6.292,0.47,6.797h1.561
				c0-0.459,0.392-3.038,0.46-5.902h7.822V6.602h-7.822c-0.032-1.546-0.17-3.008-0.272-4.104H79.274z"/>
			<path class="st0" d="M39.443,12.793c-2.332,0-6.665-3.591-6.665-5.3c0-1.69,4.333-5.3,6.665-5.3c2.336,0,6.676,3.61,6.676,5.3
				C46.119,9.202,41.778,12.793,39.443,12.793 M39.443,0c-2.626,0-9.146,5.332-9.146,7.493c0,2.176,6.521,7.508,9.146,7.508
				c2.637,0,9.142-5.332,9.142-7.508C48.585,5.332,42.08,0,39.443,0"/>
			<path class="st0" d="M13.459,7.978C10.264,6.007,2.852,5.812,2.852,3.91c0-0.987,2.324-1.946,5.01-1.851
				c1.506,0.047,3.87,0.601,5.49,1.851l1.08-1.565C12.203,0.888,9.71,0.378,7.547,0.34C2.894,0.261,0.309,2.558,0.309,4.044
				c0,1.214,1.495,2.293,2.731,2.803c4.49,1.861,9.434,1.825,9.434,3.726c0,1.085-2.095,2.327-4.989,2.275
				c-2.101-0.032-4.741-0.924-6.349-2.253L0,12.256c1.624,1.157,4.579,2.403,7.484,2.403c2.999,0,4.914-0.733,6.205-1.787
				c1.309-1.039,1.514-2.066,1.514-2.476C15.204,9.786,14.697,8.753,13.459,7.978"/>
		</g>
	</g>
	<g>
		<path class="st0" d="M24.437,28.774v-2.522H20.02v2.522h-0.649v-5.405h0.649v2.313h4.417v-2.313h0.649v5.405H24.437z"/>
		<path class="st0" d="M33.893,28.889c-2.313,0-3.192-1.03-3.192-2.818c0-1.787,0.879-2.796,3.192-2.796
			c2.313,0,3.178,1.009,3.178,2.796C37.071,27.851,36.206,28.889,33.893,28.889z M33.893,23.837c-1.802,0-2.515,0.699-2.515,2.234
			c0,1.521,0.713,2.241,2.515,2.241c1.802,0,2.501-0.721,2.501-2.241C36.394,24.536,35.702,23.837,33.893,23.837z"/>
		<path class="st0" d="M44.848,23.953v4.821h-0.642v-4.821h-2.493l0.022-0.584h5.599l0.015,0.584H44.848z"/>
		<path class="st0" d="M57.417,28.211l-0.021,0.562h-4.943v-5.405h4.756l0.021,0.57h-4.136v1.772h3.574v0.49h-3.574v2.01H57.417z"/>
		<path class="st0" d="M67.586,28.183l-0.022,0.591H62.91v-5.405h0.641v4.814H67.586z"/>
		<path class="st0" d="M74.563,28.889c-0.901,0-1.636-0.202-2.255-0.512l0.101-0.569c0.649,0.339,1.326,0.526,2.169,0.526
			c1.225,0,1.859-0.497,1.859-1.095c0-1.413-4.057-0.468-4.057-2.421c0-0.75,0.67-1.549,2.385-1.549c0.771,0,1.499,0.13,2.061,0.36
			l-0.101,0.54c-0.656-0.224-1.247-0.346-1.953-0.346c-1.304,0-1.773,0.54-1.773,0.958c0,1.355,4.057,0.382,4.057,2.414
			C77.056,28.125,76.213,28.889,74.563,28.889z"/>
		<path class="st0" d="M92.959,28.867c-0.497-0.216-1.009-0.475-1.506-0.757c-0.497,0.44-1.16,0.764-2.003,0.764
			c-1.275,0-1.722-0.663-1.722-1.276c0-0.742,0.54-1.16,1.168-1.477c-0.281-0.346-0.44-0.692-0.44-1.002
			c0-0.54,0.368-1.102,1.42-1.102c0.937,0,1.441,0.447,1.441,0.843c0,0.49-0.44,0.785-0.98,1.038
			c-0.231,0.108-0.483,0.209-0.721,0.317c0.44,0.432,1.074,0.879,1.773,1.29c0.353-0.389,0.598-0.85,0.663-1.276h0.475
			c-0.021,0.36-0.259,0.973-0.721,1.513c0.44,0.238,0.886,0.454,1.333,0.641L92.959,28.867z M91.013,27.851
			c-0.721-0.44-1.376-0.93-1.845-1.412c-0.483,0.267-0.85,0.598-0.85,1.131c0,0.548,0.519,0.822,1.21,0.822
			C90.076,28.392,90.595,28.175,91.013,27.851z M89.341,25.92c0.296-0.123,0.591-0.238,0.829-0.36
			c0.339-0.173,0.576-0.367,0.576-0.641c0-0.295-0.332-0.483-0.901-0.483c-0.519,0-0.879,0.274-0.879,0.699
			C88.966,25.372,89.103,25.639,89.341,25.92z"/>
		<path class="st0" d="M107.009,26.352l-0.007,0.014l0.389,0.432l1.737,1.975h-0.814l-1.895-2.277h-2.054v2.277h-0.649v-5.405h2.745
			c1.499,0,2.169,0.598,2.169,1.521C108.63,25.689,108.075,26.273,107.009,26.352z M106.447,23.902h-2.083v2.104h1.996
			c1.124,0,1.6-0.404,1.6-1.088C107.96,24.284,107.52,23.902,106.447,23.902z"/>
		<path class="st0" d="M119.282,28.211l-0.021,0.562h-4.943v-5.405h4.756l0.021,0.57h-4.136v1.772h3.574v0.49h-3.574v2.01H119.282z"
			/>
		<path class="st0" d="M126.518,28.889c-0.901,0-1.636-0.202-2.255-0.512l0.101-0.569c0.649,0.339,1.326,0.526,2.169,0.526
			c1.225,0,1.859-0.497,1.859-1.095c0-1.413-4.057-0.468-4.057-2.421c0-0.75,0.67-1.549,2.385-1.549c0.771,0,1.499,0.13,2.061,0.36
			l-0.101,0.54c-0.656-0.224-1.247-0.346-1.953-0.346c-1.304,0-1.773,0.54-1.773,0.958c0,1.355,4.057,0.382,4.057,2.414
			C129.012,28.125,128.169,28.889,126.518,28.889z"/>
		<path class="st0" d="M137.17,28.889c-2.313,0-3.192-1.03-3.192-2.818c0-1.787,0.879-2.796,3.192-2.796s3.178,1.009,3.178,2.796
			C140.348,27.851,139.484,28.889,137.17,28.889z M137.17,23.837c-1.802,0-2.515,0.699-2.515,2.234c0,1.521,0.714,2.241,2.515,2.241
			c1.802,0,2.501-0.721,2.501-2.241C139.671,24.536,138.979,23.837,137.17,23.837z"/>
		<path class="st0" d="M149.249,26.352l-0.007,0.014l0.389,0.432l1.737,1.975h-0.814l-1.895-2.277h-2.054v2.277h-0.649v-5.405h2.745
			c1.499,0,2.169,0.598,2.169,1.521C150.871,25.689,150.316,26.273,149.249,26.352z M148.687,23.902h-2.083v2.104h1.996
			c1.124,0,1.6-0.404,1.6-1.088C150.201,24.284,149.761,23.902,148.687,23.902z"/>
		<path class="st0" d="M158.727,23.953v4.821h-0.641v-4.821h-2.493l0.021-0.584h5.599l0.015,0.584H158.727z"/>
		<path class="st0" d="M168.075,28.889c-0.901,0-1.636-0.202-2.255-0.512l0.101-0.569c0.649,0.339,1.326,0.526,2.169,0.526
			c1.225,0,1.859-0.497,1.859-1.095c0-1.413-4.057-0.468-4.057-2.421c0-0.75,0.67-1.549,2.385-1.549c0.771,0,1.499,0.13,2.061,0.36
			l-0.101,0.54c-0.656-0.224-1.247-0.346-1.953-0.346c-1.304,0-1.773,0.54-1.773,0.958c0,1.355,4.057,0.382,4.057,2.414
			C170.568,28.125,169.725,28.889,168.075,28.889z"/>
	</g>
</g>
</svg>
